<svg
  version="1.0"
  xmlns="http://www.w3.org/2000/svg"
  width="1112.000000pt"
  height="316.000000pt"
  viewBox="0 0 1112.000000 316.000000"
  preserveAspectRatio="xMidYMid meet"
  fill="currentColor"
>
    <style>
        path {
            fill: black;
        }
        body.dark-theme path {
            fill: white;
        }
    </style>
  <g
    transform="translate(0.000000,316.000000) scale(0.100000,-0.100000)"
    stroke="none"
  >
<path d="M1045 2739 c-233 -33 -370 -128 -466 -324 -81 -166 -112 -325 -112
-570 0 -161 12 -269 44 -392 81 -310 319 -639 679 -939 155 -129 261 -187 404
-224 183 -46 335 -9 421 104 58 76 110 294 73 309 -26 10 -39 -9 -47 -69 -24
-169 -90 -263 -205 -295 -156 -44 -390 36 -591 202 -141 115 -349 327 -432
439 -224 302 -306 569 -289 945 10 236 68 436 160 559 101 133 220 190 431
203 285 17 538 -125 669 -377 55 -105 70 -170 70 -305 1 -150 -18 -231 -86
-362 -48 -95 -51 -119 -12 -111 23 4 87 121 118 218 58 173 56 337 -4 501 -78
215 -249 383 -460 453 -125 41 -242 52 -365 35z"/>
<path d="M1033 2465 c-229 -64 -353 -276 -353 -604 0 -196 43 -387 129 -566
58 -121 115 -187 291 -330 132 -108 204 -180 232 -233 18 -34 25 -37 47 -23
41 26 -38 127 -219 278 -238 197 -295 274 -369 498 -130 391 -41 797 198 908
39 19 64 22 171 22 124 0 125 0 202 -38 168 -82 238 -200 238 -403 0 -101 -18
-168 -55 -208 -19 -21 -33 -26 -72 -26 -26 0 -58 -3 -70 -6 -19 -5 -20 -9 -11
-30 10 -21 18 -24 71 -24 83 0 117 23 159 108 32 64 33 71 33 182 -1 171 -34
266 -126 357 -55 55 -123 99 -196 125 -76 27 -227 34 -300 13z"/>
<path d="M2920 1865 l0 -205 210 0 210 0 0 40 0 40 -160 0 -160 0 0 50 0 50
96 0 95 0 -3 33 -3 32 -92 3 -93 3 0 44 0 45 160 0 160 0 0 35 0 35 -210 0
-210 0 0 -205z"/>
<path d="M8043 1871 c-62 -110 -113 -202 -113 -205 0 -3 20 -6 45 -6 44 0 46
2 67 45 l22 45 131 0 130 0 24 -45 c24 -45 24 -45 79 -45 54 0 54 0 40 23 -8
12 -61 104 -118 205 l-104 182 -46 0 -45 0 -112 -199z m202 29 c19 -38 35 -72
35 -75 0 -3 -38 -5 -85 -5 -47 0 -85 2 -85 5 0 18 83 154 91 149 5 -3 25 -37
44 -74z"/>
<path d="M8610 1865 l0 -205 50 0 50 0 0 205 0 205 -50 0 -50 0 0 -205z"/>
<path d="M3490 1825 l0 -165 30 0 29 0 3 112 3 113 75 -92 c41 -51 80 -93 85
-93 6 1 42 42 80 92 l70 91 3 -111 3 -112 39 0 40 0 0 165 0 165 -37 0 c-36
-1 -43 -7 -113 -95 -41 -52 -77 -94 -80 -95 -3 0 -41 43 -83 95 -71 87 -81 95
-112 95 l-35 0 0 -165z"/>
<path d="M4100 1825 l0 -165 180 0 180 0 0 30 0 30 -140 0 -140 0 0 40 0 40
80 0 80 0 0 30 0 30 -80 0 -80 0 0 40 0 40 140 0 140 0 0 25 0 25 -180 0 -180
0 0 -165z"/>
<path d="M4580 1825 l0 -165 40 0 40 0 0 65 0 65 36 0 c30 0 47 -10 107 -65
71 -65 72 -65 130 -65 l60 0 -79 62 -79 63 47 5 c27 3 54 12 60 18 18 18 17
144 -1 165 -12 15 -38 17 -187 17 l-174 0 0 -165z m284 109 c11 -4 16 -19 16
-44 0 -46 -10 -50 -132 -50 l-88 0 0 50 0 50 94 0 c52 0 101 -3 110 -6z"/>
<path d="M5100 1974 c-18 -21 -26 -207 -11 -260 8 -30 18 -43 34 -48 12 -3 93
-6 180 -6 195 0 197 1 197 115 l0 75 -105 0 -105 0 0 -25 c0 -24 2 -25 65 -25
l65 0 0 -40 0 -40 -125 0 -125 0 0 105 0 105 125 0 c104 0 125 -2 125 -15 0
-16 20 -19 58 -9 27 8 30 44 4 67 -27 24 -363 25 -382 1z"/>
<path d="M5640 1825 l0 -165 180 0 180 0 0 30 0 30 -140 0 -140 0 0 40 0 40
80 0 80 0 0 30 0 30 -81 0 -80 0 3 38 3 37 138 3 137 3 0 24 0 25 -180 0 -180
0 0 -165z"/>
<path d="M6120 1825 l0 -165 40 0 39 0 3 109 3 109 138 -109 c105 -84 144
-109 167 -109 l30 0 0 165 0 165 -40 0 -39 0 -3 -106 -3 -106 -135 106 c-108
85 -141 106 -167 106 l-33 0 0 -165z"/>
<path d="M6696 1974 c-13 -12 -16 -41 -16 -149 0 -173 -9 -165 192 -165 135 0
150 2 168 20 13 13 20 33 20 59 0 32 -4 40 -22 45 -46 12 -57 7 -60 -26 l-3
-33 -107 -3 -108 -3 0 106 0 105 110 0 110 0 0 -31 c0 -24 3 -30 16 -25 9 3
27 6 40 6 20 0 24 5 24 33 0 18 -7 43 -16 55 -15 21 -21 22 -174 22 -131 0
-161 -3 -174 -16z"/>
<path d="M7233 1902 l87 -87 0 -78 0 -77 40 0 40 0 0 72 0 73 92 92 93 93 -51
0 c-49 0 -53 -2 -107 -59 l-56 -58 -57 58 c-57 58 -60 59 -113 59 l-56 0 88
-88z"/>
<path d="M2301 1508 c-12 -40 -32 -107 -44 -148 l-23 -75 -23 62 c-13 34 -30
68 -38 75 -17 14 -29 2 -75 -75 -27 -45 -28 -46 -85 -49 -51 -3 -58 -6 -61
-25 -3 -22 -1 -23 75 -23 l78 0 24 45 c13 25 25 44 27 43 1 -2 16 -39 32 -83
22 -62 33 -80 48 -80 20 0 24 11 75 183 12 40 23 72 25 70 1 -2 17 -82 33
-178 42 -235 60 -245 112 -60 19 66 37 114 40 107 4 -7 13 -38 20 -70 19 -86
33 -92 83 -34 37 42 45 47 83 47 54 0 73 8 73 30 0 23 -19 30 -83 30 -41 0
-56 -5 -78 -26 l-28 -27 -15 54 c-8 30 -20 73 -26 97 -9 36 -15 43 -33 40 -18
-3 -26 -19 -51 -106 -16 -57 -32 -99 -37 -95 -4 4 -19 80 -34 168 -15 88 -29
163 -32 168 -2 4 -12 7 -23 7 -14 0 -23 -16 -39 -72z"/>
<path d="M1030 1487 c-51 -26 -63 -153 -18 -194 17 -15 39 -18 154 -18 142 0
152 -4 112 -43 -33 -30 -68 -41 -159 -48 l-80 -7 28 -30 c27 -28 31 -29 93
-23 87 8 163 46 198 99 22 33 28 54 31 119 4 90 -9 130 -45 147 -35 16 -282
14 -314 -2z m264 -63 c9 -9 16 -32 16 -55 l0 -39 -115 0 c-106 0 -115 2 -125
21 -13 23 -5 70 13 81 7 4 53 8 104 8 70 0 95 -4 107 -16z"/>
<path d="M1515 1495 c-5 -2 -27 -6 -47 -10 -32 -5 -38 -10 -38 -30 0 -22 4
-25 40 -25 l40 0 0 -150 0 -150 40 0 40 0 0 185 0 185 -32 -1 c-18 0 -37 -2
-43 -4z"/>
<path d="M1765 1495 c-5 -2 -27 -6 -47 -10 -32 -5 -38 -10 -38 -30 0 -22 4
-25 40 -25 l40 0 0 -150 0 -150 40 0 40 0 0 185 0 185 -32 -1 c-18 0 -37 -2
-43 -4z"/>
<path d="M2920 756 l0 -206 50 0 50 0 0 75 0 75 47 0 c46 0 50 -3 124 -75 l75
-76 68 3 68 3 -87 70 -87 70 49 10 c78 15 83 24 83 125 0 128 7 124 -241 128
l-199 3 0 -205z m334 128 c12 -4 16 -20 16 -54 0 -58 -4 -60 -147 -60 l-103 0
0 60 0 60 109 0 c60 0 116 -3 125 -6z"/>
<path d="M7550 949 c-36 -14 -40 -26 -40 -110 0 -115 -3 -113 189 -117 l161
-3 0 -45 0 -44 -145 0 c-138 0 -145 1 -145 20 0 21 -16 25 -57 14 -32 -9 -31
-57 2 -89 24 -25 27 -25 194 -25 93 0 181 4 195 10 29 11 40 42 40 115 0 72
-10 100 -39 113 -16 8 -81 12 -170 12 l-145 0 0 45 0 46 133 -3 c126 -3 132
-4 135 -24 3 -19 7 -21 38 -14 20 5 38 11 41 14 13 12 -14 71 -37 83 -30 15
-312 17 -350 2z"/>
<path d="M3530 715 l0 -165 180 0 180 0 0 30 0 30 -140 0 -140 0 0 40 0 40 80
0 80 0 0 30 0 30 -80 0 -80 0 0 40 0 40 140 0 140 0 0 25 0 25 -180 0 -180 0
0 -165z"/>
<path d="M4031 867 c-16 -20 -24 -72 -17 -111 12 -62 22 -66 172 -66 l134 0 0
-40 0 -40 -125 0 c-118 0 -125 1 -125 20 0 21 -10 24 -47 14 -29 -8 -31 -46
-3 -74 18 -18 33 -20 175 -20 189 0 195 3 195 103 0 94 -6 97 -168 97 l-132 0
0 35 0 35 115 0 c96 0 115 -3 115 -15 0 -18 9 -19 45 -5 21 8 25 14 20 33 -13
43 -30 47 -191 47 -115 0 -154 -3 -163 -13z"/>
<path d="M4530 715 l0 -165 40 0 40 0 0 65 0 65 128 0 c165 0 172 4 172 100 0
101 3 100 -206 100 l-174 0 0 -165z m303 94 c5 -9 7 -28 3 -42 l-6 -27 -110 0
-110 0 0 45 0 46 106 -3 c85 -2 109 -6 117 -19z"/>
<path d="M5034 855 c-13 -20 -15 -47 -12 -150 3 -112 5 -128 22 -141 15 -11
59 -14 191 -14 227 0 215 -9 215 161 0 72 -5 139 -10 150 -10 18 -23 19 -200
19 l-190 0 -16 -25z m336 -140 l0 -106 -132 3 -133 3 -3 103 -3 102 136 0 135
0 0 -105z"/>
<path d="M5600 715 l0 -165 35 0 34 0 3 111 3 111 140 -111 c101 -80 148 -111
168 -111 l27 0 0 165 0 165 -35 0 -35 0 0 -105 c0 -58 -3 -105 -6 -105 -4 0
-67 47 -141 105 -101 80 -141 105 -163 105 l-30 0 0 -165z"/>
<path d="M6179 858 c-19 -35 -15 -125 6 -148 16 -18 31 -20 152 -20 l133 0 0
-40 0 -40 -121 0 c-114 0 -121 1 -126 21 -4 15 -11 19 -27 15 -11 -3 -27 -6
-33 -6 -20 0 -15 -48 7 -70 18 -18 33 -20 173 -20 193 0 197 2 197 100 0 99
-2 100 -166 100 l-134 0 0 35 0 35 115 0 c99 0 115 -2 115 -16 0 -12 6 -15 23
-10 12 3 28 6 35 6 17 0 15 31 -4 58 -15 21 -21 22 -174 22 -154 0 -160 -1
-171 -22z"/>
<path d="M6680 715 l0 -165 185 0 185 0 0 30 0 30 -140 0 -140 0 0 40 0 39 78
3 c76 3 77 3 80 31 l3 27 -80 0 -81 0 0 40 0 40 135 0 135 0 0 25 0 25 -180 0
-180 0 0 -165z"/>
<path d="M8153 792 l87 -87 0 -78 0 -77 40 0 40 0 0 71 0 71 87 92 87 91 -44
3 c-41 3 -46 0 -105 -58 l-62 -61 -52 60 -53 61 -56 0 -57 0 88 -88z"/>
<path d="M8606 858 c-24 -34 -21 -123 4 -148 18 -18 33 -20 150 -20 l130 0 0
-40 0 -40 -120 0 c-113 0 -120 1 -120 20 0 21 -10 24 -47 14 -17 -5 -23 -14
-23 -35 0 -51 26 -59 195 -59 82 0 155 4 161 8 34 22 45 114 21 162 -12 24
-15 25 -152 30 l-140 5 -3 33 -3 32 115 0 c100 0 116 -2 116 -16 0 -12 6 -15
23 -10 12 3 28 6 35 6 17 0 15 46 -4 64 -13 13 -43 16 -169 16 -148 0 -154 -1
-169 -22z"/>
<path d="M9070 850 l0 -30 80 0 80 0 0 -135 0 -135 40 0 40 0 0 135 0 135 80
0 80 0 0 30 0 30 -200 0 -200 0 0 -30z"/>
<path d="M9570 715 l0 -165 185 0 185 0 0 30 0 30 -140 0 -140 0 0 40 0 39 78
3 c76 3 77 3 80 31 l3 27 -80 0 -81 0 0 40 0 40 135 0 135 0 0 25 0 25 -180 0
-180 0 0 -165z"/>
<path d="M10060 715 l0 -165 30 0 29 0 3 112 3 112 74 -92 c41 -51 78 -92 82
-92 4 0 40 41 81 92 l73 92 3 -112 3 -112 34 0 35 0 0 165 0 165 -33 0 c-30 0
-41 -10 -106 -90 -40 -49 -76 -92 -81 -95 -4 -3 -43 38 -85 90 -70 86 -81 95
-111 95 l-34 0 0 -165z"/>
</g>
</svg>
